<svg xmlns="http://www.w3.org/2000/svg" width="619" height="620" fill="none" viewBox="0 0 619 620">
  <path fill="#D61D2B" fill-rule="evenodd" d="M297.399 588.155c-90.923 53.119-276.1 75.53-289.43-259.785-3.703 0-54.557-324.105 185.504-327.112C343.64 3.463 652.122 79.408 614.6 305.518c3.086-3.007-53.072 148.535-140.087 191.832l-177.114 90.805Zm-17.394-75.23c-47.516 26.511-151.141 48.48-185.509-75.732-8.344-34.294-20.883-112.485-4.286-150.895 1.07-5.042 66.791-141.403 67.041-139.315.023.193.387-.362 1.134-1.498 7.319-11.14 51.341-78.137 169.942-43.334 19.894 1.704 275.667 129.526 49.184 322.339 1.253-.15-58.086 62.919-97.506 88.435Z" clip-rule="evenodd"/>
</svg>