<svg xmlns="http://www.w3.org/2000/svg" width="619" height="620" fill="none" viewBox="0 0 619 620">
  <path fill="#D61D2B" fill-rule="evenodd" d="M297.399 588.155c-90.923 53.119-276.1 75.53-289.43-259.785-3.703 0-54.557-324.105 185.504-327.112C343.64 3.463 652.122 79.408 614.6 305.518c3.086-3.007-53.072 148.535-140.087 191.832l-177.114 90.805Zm-17.394-75.23c-47.516 26.511-151.141 48.48-185.509-75.732-8.344-34.294-20.883-112.485-4.286-150.895 1.07-5.042 66.791-141.403 67.041-139.315.023.193.387-.362 1.134-1.498 7.319-11.14 51.341-78.137 169.942-43.334 19.894 1.704 275.667 129.526 49.184 322.339 1.253-.15-58.086 62.919-97.506 88.435Z" clip-rule="evenodd"/>
  <path fill="#D61D2B" d="m7.968 328.37.5-.02-.02-.48h-.48v.5ZM297.4 588.155l-.228-.445-.012.006-.012.007.252.432ZM193.473 1.258l.008-.5h-.014l.006.5ZM614.6 305.518l-.493-.082-.249 1.504 1.091-1.064-.349-.358ZM474.513 497.35l-.222-.448-.006.003.228.445ZM94.496 437.193l-.485.118.001.008.002.007.482-.133Zm185.509 75.732.244.436.014-.008.014-.009-.272-.419ZM90.21 286.298l.459.199.02-.046.01-.049-.49-.104Zm67.041-139.315-.497.059.497-.059Zm1.134-1.498-.418-.275.418.275Zm169.942-43.334-.14.48.048.014.05.005.042-.499Zm49.184 322.339-.325-.381-1.261 1.074 1.645-.197-.059-.496ZM7.469 328.389c6.667 167.723 56.321 246.188 115.894 275.983 59.543 29.781 128.76 10.814 174.288-15.786l-.504-.863c-45.394 26.52-114.228 45.318-173.337 15.755C64.73 573.929 15.13 495.943 8.468 328.35l-1 .039ZM193.467.759C133.326 1.51 91.36 22.381 62.327 53.294 33.308 84.195 17.246 125.089 8.82 165.84.393 206.595-.405 247.248 1.133 277.706c.77 15.231 2.124 27.919 3.402 36.802.639 4.442 1.26 7.937 1.78 10.327.26 1.193.498 2.122.702 2.758.102.315.201.577.3.769.047.094.106.194.18.279a.633.633 0 0 0 .471.229v-1c.103 0 .178.035.218.06.04.024.06.047.063.05.005.006-.01-.011-.042-.073a4.5 4.5 0 0 1-.238-.621c-.19-.59-.419-1.482-.676-2.664-.514-2.358-1.131-5.829-1.768-10.256-1.274-8.852-2.625-21.509-3.393-36.71-1.536-30.405-.737-70.967 7.667-111.613 8.405-40.651 24.41-81.347 53.257-112.063C91.89 23.28 133.59 2.508 193.48 1.758l-.013-1ZM615.094 305.6c9.401-56.654-2.872-103.924-28.932-142.98-26.052-39.043-65.865-69.853-111.511-93.64C383.364 21.41 268.621 1.863 193.481.759l-.015 1c75.027 1.102 189.607 20.628 280.723 68.11 45.554 23.738 85.212 54.449 111.141 93.307 25.92 38.846 38.137 85.86 28.777 142.261l.987.164ZM474.736 497.798c43.649-21.72 79.504-70.545 104.043-113.48 12.276-21.48 21.734-41.511 27.931-55.987 3.098-7.237 5.382-13.089 6.797-17.041.706-1.974 1.199-3.483 1.467-4.456.131-.477.218-.859.241-1.107a1.31 1.31 0 0 0 .004-.209.637.637 0 0 0-.109-.317.538.538 0 0 0-.583-.207.65.65 0 0 0-.275.166l.697.716a.413.413 0 0 1-.152.081.47.47 0 0 1-.504-.179.405.405 0 0 1-.071-.181c-.001-.007 0 .002-.003.038-.014.151-.078.456-.209.933-.258.938-.741 2.419-1.445 4.385-1.406 3.929-3.682 9.761-6.775 16.985-6.184 14.446-15.625 34.442-27.88 55.884-24.523 42.908-60.254 91.502-103.619 113.081l.445.895ZM297.627 588.6l177.115-90.805-.457-.89-177.114 90.805.456.89ZM94.014 437.326c8.611 31.119 21.569 53.119 36.935 68.187 15.368 15.07 33.121 23.182 51.28 26.558 36.295 6.749 74.201-5.42 98.02-18.71l-.487-.873c-23.697 13.221-61.362 25.292-97.35 18.6-17.984-3.344-35.55-11.372-50.763-26.289-15.214-14.919-28.097-36.752-36.67-67.74l-.965.267ZM89.751 286.1c-8.35 19.325-9.353 48.582-7.25 77.225 2.106 28.668 7.332 56.816 11.51 73.986l.971-.236C90.816 419.95 85.6 391.856 83.5 363.252c-2.103-28.628-1.077-57.671 7.17-76.755l-.918-.397Zm67.996-139.177a.513.513 0 0 0-.538-.463.535.535 0 0 0-.262.084.636.636 0 0 0-.102.08 1.789 1.789 0 0 0-.221.282c-.144.215-.344.554-.592.998-.5.893-1.222 2.259-2.134 4.03-1.825 3.542-4.419 8.72-7.526 15.005-6.214 12.571-14.487 29.58-22.785 46.811-8.298 17.23-16.622 34.685-22.938 48.147-3.158 6.731-5.816 12.466-7.717 16.676a252.001 252.001 0 0 0-2.256 5.112c-.271.64-.489 1.172-.647 1.585-.154.402-.266.723-.308.925l.978.207c.024-.113.106-.364.263-.774.153-.398.366-.918.635-1.553.538-1.27 1.297-2.988 2.246-5.09 1.899-4.204 4.554-9.934 7.711-16.663 6.315-13.459 14.637-30.91 22.934-48.138 8.298-17.229 16.569-34.235 22.781-46.802 3.106-6.283 5.696-11.455 7.518-14.99a143.777 143.777 0 0 1 2.118-4c.247-.441.43-.75.55-.93.066-.099.091-.124.083-.116-.005.004-.024.022-.055.042a.485.485 0 0 1-.729-.346l.993-.119Zm.22-1.713c-.377.574-.646.983-.824 1.227-.044.06-.079.105-.105.137l-.033.038c.003-.002.023-.02.059-.039a.48.48 0 0 1 .613.162c.057.087.067.166.07.188l-.993.119a.568.568 0 0 0 .087.243.522.522 0 0 0 .694.17.743.743 0 0 0 .125-.087c.098-.085.2-.217.29-.341.197-.269.483-.705.853-1.268l-.836-.549Zm170.501-43.538c-59.409-17.434-100.199-9.384-127.072 4.473-26.86 13.851-39.754 33.472-43.429 39.065l.836.549c3.644-5.545 16.421-24.993 43.051-38.725 26.619-13.726 67.14-21.773 126.333-4.403l.281-.959Zm49.367 323.199c56.672-48.247 83.238-92.481 90.827-131.755 7.59-39.285-3.823-73.525-22.938-101.742-19.109-28.208-45.926-50.414-69.196-65.671-11.637-7.63-22.395-13.527-30.871-17.571-4.238-2.023-7.909-3.584-10.837-4.667-2.912-1.077-5.133-1.699-6.45-1.812l-.085.997c1.169.1 3.278.677 6.188 1.753 2.893 1.07 6.536 2.618 10.753 4.631 8.435 4.025 19.154 9.9 30.754 17.505 23.205 15.215 49.906 37.335 68.916 65.396 19.005 28.054 30.312 62.028 22.784 100.991-7.531 38.975-33.924 83.024-90.494 131.183l.649.762Zm-97.558 88.473c19.754-12.786 44.473-34.962 64.081-53.902 9.808-9.473 18.344-18.145 24.351-24.44 3.004-3.148 5.377-5.703 6.961-7.468a62.964 62.964 0 0 0 1.773-2.04c.189-.231.336-.422.427-.56.039-.058.096-.148.128-.242a.615.615 0 0 0 .028-.123.518.518 0 0 0-.303-.536.518.518 0 0 0-.272-.039l.119.992a.488.488 0 0 1-.537-.534.374.374 0 0 1 .02-.086c.013-.038.021-.041-.017.016a7.115 7.115 0 0 1-.368.48 61.967 61.967 0 0 1-1.742 2.004c-1.575 1.755-3.941 4.302-6.94 7.445-5.998 6.286-14.525 14.948-24.323 24.412-19.604 18.936-44.264 41.053-63.929 53.782l.543.839Z"/>
</svg>